<svg id="visual" viewBox="0 0 900 600" width="900" height="600" xmlns="http://www.w3.org/2000/svg" xmlns:xlink="http://www.w3.org/1999/xlink" version="1.1"><rect x="0" y="0" width="900" height="600" fill="#001220"></rect><defs><linearGradient id="grad1_0" x1="33.3%" y1="0%" x2="100%" y2="100%"><stop offset="20%" stop-color="#001220" stop-opacity="1"></stop><stop offset="80%" stop-color="#001220" stop-opacity="1"></stop></linearGradient></defs><defs><linearGradient id="grad2_0" x1="0%" y1="0%" x2="66.7%" y2="100%"><stop offset="20%" stop-color="#001220" stop-opacity="1"></stop><stop offset="80%" stop-color="#001220" stop-opacity="1"></stop></linearGradient></defs><g transform="translate(900, 0)"><path d="M0 324.5C-17 249.7 -33.9 174.9 -63.5 153.4C-93.1 131.9 -135.4 163.7 -158.4 158.4C-181.3 153.1 -184.9 110.7 -188.5 78.1C-192 45.5 -195.5 22.7 -199 0L0 0Z" fill="#FBAE3C"></path></g><g transform="translate(0, 600)"><path d="M0 -209C29.6 -227.8 59.2 -246.6 106 -255.9C152.8 -265.2 217 -265 229.5 -229.5C242 -193.9 202.8 -123 190.3 -78.8C177.8 -34.7 191.9 -17.3 206 0L0 0Z" fill="#FBAE3C"></path></g></svg>