<svg id="visual" viewBox="0 0 900 675" width="900" height="675" xmlns="http://www.w3.org/2000/svg" xmlns:xlink="http://www.w3.org/1999/xlink" version="1.1"><path d="M0 62L37.5 63.2C75 64.3 150 66.7 225 70C300 73.3 375 77.7 450 79.8C525 82 600 82 675 84.3C750 86.7 825 91.3 862.5 93.7L900 96L900 0L862.5 0C825 0 750 0 675 0C600 0 525 0 450 0C375 0 300 0 225 0C150 0 75 0 37.5 0L0 0Z" fill="#e9ecfd"></path><path d="M0 332L37.5 330.8C75 329.7 150 327.3 225 326.2C300 325 375 325 450 328.3C525 331.7 600 338.3 675 347.3C750 356.3 825 367.7 862.5 373.3L900 379L900 94L862.5 91.7C825 89.3 750 84.7 675 82.3C600 80 525 80 450 77.8C375 75.7 300 71.3 225 68C150 64.7 75 62.3 37.5 61.2L0 60Z" fill="#d7dbfc"></path><path d="M0 426L37.5 437.3C75 448.7 150 471.3 225 474.8C300 478.3 375 462.7 450 453.7C525 444.7 600 442.3 675 445.7C750 449 825 458 862.5 462.5L900 467L900 377L862.5 371.3C825 365.7 750 354.3 675 345.3C600 336.3 525 329.7 450 326.3C375 323 300 323 225 324.2C150 325.3 75 327.7 37.5 328.8L0 330Z" fill="#c1c8fa"></path><path d="M0 494L37.5 503C75 512 150 530 225 539C300 548 375 548 450 546.8C525 545.7 600 543.3 675 538.8C750 534.3 825 527.7 862.5 524.3L900 521L900 465L862.5 460.5C825 456 750 447 675 443.7C600 440.3 525 442.7 450 451.7C375 460.7 300 476.3 225 472.8C150 469.3 75 446.7 37.5 435.3L0 424Z" fill="#d7dbfc"></path><path d="M0 676L37.5 676C75 676 150 676 225 676C300 676 375 676 450 676C525 676 600 676 675 676C750 676 825 676 862.5 676L900 676L900 519L862.5 522.3C825 525.7 750 532.3 675 536.8C600 541.3 525 543.7 450 544.8C375 546 300 546 225 537C150 528 75 510 37.5 501L0 492Z" fill="#e9ecfd"></path></svg>